<?xml version="1.0" standalone="no"?><!DOCTYPE svg PUBLIC "-//W3C//DTD SVG 1.1//EN" "http://www.w3.org/Graphics/SVG/1.1/DTD/svg11.dtd"><svg t="1771041709553" class="icon" viewBox="0 0 1024 1024" version="1.1" xmlns="http://www.w3.org/2000/svg" p-id="10905" width="256" height="256" xmlns:xlink="http://www.w3.org/1999/xlink"><path d="M88.6 790.1c193.7 193.7 507.8 193.7 701.5 0s193.7-507.8 0-701.5L88.6 790.1z" fill="#67A800" p-id="10906"></path><path d="M187.5 691.2c139.1 139.1 364.6 139.1 503.6 0s139.1-364.6 0-503.6L187.5 691.2z" fill="#F23920" p-id="10907"></path><path d="M702.3 885.1c-8.3 0-16.5-4.2-21.2-11.7-7.3-11.7-3.8-27.1 7.9-34.5 30.1-18.8 58.1-41.2 83.4-66.5 45-45 79.8-97.4 103.5-155.8 22.9-56.4 34.5-116.1 34.5-177.3S898.8 318.5 875.9 262c-20.6-50.7-49.5-96.9-86.3-137.7L637.2 276.9c-9.8 9.8-25.6 9.8-35.4 0-9.8-9.8-9.8-25.6 0-35.4L772.4 70.9c9.8-9.8 25.6-9.8 35.4 0 49.7 49.7 88.2 107.7 114.5 172.4 25.3 62.4 38.2 128.4 38.2 196s-12.8 133.6-38.2 196c-26.2 64.6-64.7 122.6-114.5 172.4-28 28-59 52.7-92.3 73.5-4.1 2.7-8.7 3.9-13.2 3.9z" fill="#231E21" p-id="10908"></path><path d="M745.6 257.4c-14.8-24.9-33-48.4-54.4-69.9L187.5 691.2c21.4 21.4 45 39.6 69.9 54.4l488.2-488.2z" fill="#F27B6A" p-id="10909"></path><path d="M439.4 960.4c-38.1 0-76.3-4.2-113.9-12.6-96.4-21.5-184.4-69.9-254.6-140.1-9.8-9.8-9.8-25.6 0-35.4L464 379.4c9.8-9.8 25.6-9.8 35.4 0 9.8 9.8 9.8 25.6 0 35.4l-375 374.8c60.2 54.2 133 91.8 212 109.4 84.8 18.9 173.1 14.1 255.2-13.8 13.1-4.5 27.3 2.5 31.7 15.6 4.5 13.1-2.5 27.3-15.6 31.7-54.4 18.6-111.3 27.9-168.3 27.9z m105.9-602c-6.4 0-12.8-2.4-17.7-7.3-9.8-9.8-9.8-25.6 0-35.4l13.5-13.5c9.8-9.8 25.6-9.8 35.4 0 9.8 9.8 9.8 25.6 0 35.4L563 351.1c-4.9 4.8-11.3 7.3-17.7 7.3z" fill="#231E21" p-id="10910"></path><path d="M439.4 820.5c-49.5 0-97.7-9.4-143.4-27.9-47.3-19.2-89.7-47.3-126.1-83.7-9.8-9.8-9.8-25.6 0-35.4 9.8-9.8 25.6-9.8 35.4 0 62.5 62.5 145.7 97 234.1 97s171.6-34.4 234.1-97c62.5-62.5 97-145.7 97-234.1s-34.4-171.6-97-234.1c-9.8-9.8-9.8-25.6 0-35.4 9.8-9.8 25.6-9.8 35.4 0 36.4 36.4 64.5 78.8 83.7 126.1 18.5 45.7 27.9 93.9 27.9 143.4s-9.4 97.7-27.9 143.4c-19.2 47.3-47.3 89.7-83.7 126.1-36.4 36.4-78.8 64.5-126.1 83.7-45.7 18.5-94 27.9-143.4 27.9z" fill="#231E21" p-id="10911"></path><path d="M682 426.5a20.2 28.3 0 1 0 40.4 0 20.2 28.3 0 1 0-40.4 0zM576.6 678a20.2 28.3 0 1 0 40.4 0 20.2 28.3 0 1 0-40.4 0zM613.1 491.4a20.2 28.3 0 1 0 40.4 0 20.2 28.3 0 1 0-40.4 0zM552 587.4a28.3 20.2 0 1 0 56.6 0 28.3 20.2 0 1 0-56.6 0zM669.2 525.9a28.3 20.2 0 1 0 56.6 0 28.3 20.2 0 1 0-56.6 0zM609.5 353.6a33.2 23.7 0 1 0 66.4 0 33.2 23.7 0 1 0-66.4 0zM365.2 595.5a28.3 20.2 0 1 0 56.6 0 28.3 20.2 0 1 0-56.6 0zM519.7 457.8a20.2 28.3 0 1 0 40.4 0 20.2 28.3 0 1 0-40.4 0zM461.3 668.6a20.2 28.3 0 1 0 40.4 0 20.2 28.3 0 1 0-40.4 0zM343.2 717.8a20.2 28.3 0 1 0 40.4 0 20.2 28.3 0 1 0-40.4 0zM461.3 570.1a20.2 28.3 0 1 0 40.4 0 20.2 28.3 0 1 0-40.4 0z" fill="#231E21" p-id="10912"></path></svg>